# xmcd
#
# Track frame offsets:
# 151
# 12665
# 27511
# 41161
# 57266
# 72343
# 86638
# 101445
# 113850
# 130159
# 145189
# 161117
# 172625
# 189273
# 205512
# 222493
# 235715
# 247271
# 261741
# 276634
# 291849
# 305508
# 321203
#
# Disc length: 4502 seconds
#
#
# Revision: 0
# Processed by: cddbd v1.5.1PL0 Copyright (c) Steve Scherf et al.
# Submitted via: FreeRIP 2.92 
#
DISCID=64119417
DTITLE=Sertanejo Rápido 5
DYEAR=1900
DGENRE=Country
TTITLE0=Na Sola da Bota
TTITLE1=Deixe seu Recado
TTITLE2=Namoro Escondido
TTITLE3=Clima de Rodeio
TTITLE4=Não foge da raia
TTITLE5=Nóis não vive é sem dinheiro
TTITLE6=Quebrando tudo
TTITLE7=Feriado Nacional
TTITLE8=Casa Cheia
TTITLE9=Cachaça
TTITLE10=Pinga na Garganta
TTITLE11=Socorro
TTITLE12=Saudade Aperta
TTITLE13=Mexe, mexe que é bom
TTITLE14=Mulher que não dá voa
TTITLE15=Bate, coração
TTITLE16=Dormi na praça
TTITLE17=Uai Uai
TTITLE18=O gato comeu
TTITLE19=Do jeito que a moçada gosta
TTITLE20=Amor de Carnaval
TTITLE21=Frete
TTITLE22=Ela não veio
EXTD=Produzido por: DJ Pela
EXTT0=
EXTT1=
EXTT2=
EXTT3=
EXTT4=
EXTT5=
EXTT6=
EXTT7=
EXTT8=
EXTT9=
EXTT10=
EXTT11=
EXTT12=
EXTT13=
EXTT14=
EXTT15=
EXTT16=
EXTT17=
EXTT18=
EXTT19=
EXTT20=
EXTT21=
EXTT22=
PLAYORDER=
